HIERARCHY
ROOT Hips
{
	OFFSET 0.000000 71.427986 0.000000
	CHANNELS 6 Xposition Yposition Zposition Xrotation Yrotation Zrotation
	JOINT Pelvis
	{
		OFFSET 0.000000 0.000000 0.000000
		CHANNELS 3 Xrotation Yrotation Zrotation
		JOINT LeftUpLeg
		{
			OFFSET 6.797100 -2.508499 -1.318700
			CHANNELS 3 Xrotation Yrotation Zrotation
			JOINT LeftLeg
			{
				OFFSET 0.069008 -29.241863 0.690200
				CHANNELS 3 Xrotation Yrotation Zrotation
				JOINT LeftFoot
				{
					OFFSET -0.069008 -29.568123 -0.266800
					CHANNELS 3 Xrotation Yrotation Zrotation
					JOINT LeftToeBase
					{
						OFFSET 3.145500 -8.631000 16.059900
						CHANNELS 3 Xrotation Yrotation Zrotation
						End Site
						{
							OFFSET 0.000000 18.501587 0.000000
						}
					}
				}
			}
			JOINT Left_ShortSleeve
			{
				OFFSET 0.265923 -10.480953 1.153800
				CHANNELS 3 Xrotation Yrotation Zrotation
				End Site
				{
					OFFSET 1.725763 19.823879 0.000000
				}
			}
		}
		JOINT RightUpLeg
		{
			OFFSET -6.797100 -2.508499 -1.318700
			CHANNELS 3 Xrotation Yrotation Zrotation
			JOINT RightLeg
			{
				OFFSET -0.082453 -29.241932 0.688000
				CHANNELS 3 Xrotation Yrotation Zrotation
				JOINT RightFoot
				{
					OFFSET 0.082453 -29.568058 -0.264600
					CHANNELS 3 Xrotation Yrotation Zrotation
					JOINT RightToeBase
					{
						OFFSET -3.115300 -8.682800 16.113400
						CHANNELS 3 Xrotation Yrotation Zrotation
						End Site
						{
							OFFSET 0.000000 18.567114 0.000000
						}
					}
				}
			}
			JOINT Right_ShortSleeve
			{
				OFFSET -0.265923 -10.480953 1.153800
				CHANNELS 3 Xrotation Yrotation Zrotation
				End Site
				{
					OFFSET -1.725766 19.823910 0.000000
				}
			}
		}
	}
	JOINT Spine
	{
		OFFSET 0.000000 13.368103 0.470500
		CHANNELS 3 Xrotation Yrotation Zrotation
		JOINT Spine1
		{
			OFFSET 0.147000 13.837402 0.538800
			CHANNELS 3 Xrotation Yrotation Zrotation
			JOINT Spine2
			{
				OFFSET 0.168000 16.242897 -1.435500
				CHANNELS 3 Xrotation Yrotation Zrotation
				JOINT Neck
				{
					OFFSET 0.217200 18.631500 -1.679100
					CHANNELS 3 Xrotation Yrotation Zrotation
					JOINT Head
					{
						OFFSET 0.000000 6.599396 1.385900
						CHANNELS 3 Xrotation Yrotation Zrotation
						JOINT Hat
						{
							OFFSET -0.532200 27.220596 -10.096100
							CHANNELS 3 Xrotation Yrotation Zrotation
							End Site
							{
								OFFSET 0.000000 22.029861 0.000000
							}
						}
						JOINT HairD
						{
							OFFSET -10.777400 17.437393 -1.325900
							CHANNELS 3 Xrotation Yrotation Zrotation
							JOINT HairD1
							{
								OFFSET -3.290299 -11.051193 1.062200
								CHANNELS 3 Xrotation Yrotation Zrotation
								End Site
								{
									OFFSET 0.000000 11.579437 0.000000
								}
							}
						}
						JOINT HairB
						{
							OFFSET -10.777400 17.437393 1.467900
							CHANNELS 3 Xrotation Yrotation Zrotation
							JOINT HairB1
							{
								OFFSET -1.561200 -12.956299 3.590200
								CHANNELS 3 Xrotation Yrotation Zrotation
								End Site
								{
									OFFSET 0.000000 13.534866 0.000000
								}
							}
						}
						JOINT HairA
						{
							OFFSET 9.713100 17.437393 1.467900
							CHANNELS 3 Xrotation Yrotation Zrotation
							JOINT HairA1
							{
								OFFSET 1.561200 -12.956299 3.590200
								CHANNELS 3 Xrotation Yrotation Zrotation
								End Site
								{
									OFFSET 0.000000 13.534866 0.000000
								}
							}
						}
						JOINT HairC
						{
							OFFSET 9.713100 17.437393 -1.325900
							CHANNELS 3 Xrotation Yrotation Zrotation
							JOINT HairC1
							{
								OFFSET 3.290300 -11.051193 1.062200
								CHANNELS 3 Xrotation Yrotation Zrotation
								End Site
								{
									OFFSET 0.000000 11.579437 0.000000
								}
							}
						}
					}
				}
				JOINT LeftShoulder
				{
					OFFSET 5.101800 15.108002 -2.763700
					CHANNELS 3 Xrotation Yrotation Zrotation
					JOINT LeftArm
					{
						OFFSET 9.825497 2.506317 -1.597400
						CHANNELS 3 Xrotation Yrotation Zrotation
						JOINT LeftForeArm
						{
							OFFSET 21.966244 0.000000 0.000000
							CHANNELS 3 Xrotation Yrotation Zrotation
							JOINT LeftHand
							{
								OFFSET 33.879036 0.000000 0.000000
								CHANNELS 3 Xrotation Yrotation Zrotation
								JOINT LeftHandThumb1
								{
									OFFSET 6.715286 -2.359680 3.363841
									CHANNELS 3 Xrotation Yrotation Zrotation
									JOINT LeftHandThumb2
									{
										OFFSET 2.507072 -1.447464 1.447461
										CHANNELS 3 Xrotation Yrotation Zrotation
										JOINT LeftHandThumb3
										{
											OFFSET 2.898338 -1.673355 1.673357
											CHANNELS 3 Xrotation Yrotation Zrotation
											End Site
											{
												OFFSET -0.295959 3.727692 -0.131651
											}
										}
									}
								}
								JOINT LeftHandIndex1
								{
									OFFSET 14.190811 -0.254547 3.840278
									CHANNELS 3 Xrotation Yrotation Zrotation
									JOINT LeftHandIndex2
									{
										OFFSET 3.551727 0.000000 -0.000000
										CHANNELS 3 Xrotation Yrotation Zrotation
										JOINT LeftHandIndex3
										{
											OFFSET 2.894196 0.000000 0.000000
											CHANNELS 3 Xrotation Yrotation Zrotation
											End Site
											{
												OFFSET -1.000603 2.690872 0.366626
											}
										}
									}
								}
								JOINT LeftHandMiddle1
								{
									OFFSET 13.776489 0.000000 0.000000
									CHANNELS 3 Xrotation Yrotation Zrotation
									JOINT LeftHandMiddle2
									{
										OFFSET 3.438232 0.000000 0.000000
										CHANNELS 3 Xrotation Yrotation Zrotation
										JOINT LeftHandMiddle3
										{
											OFFSET 3.691551 0.000000 0.000000
											CHANNELS 3 Xrotation Yrotation Zrotation
											End Site
											{
												OFFSET -1.082298 3.499527 0.457670
											}
										}
									}
								}
								JOINT LeftHandRing1
								{
									OFFSET 13.966164 -0.268127 -3.067488
									CHANNELS 3 Xrotation Yrotation Zrotation
									JOINT LeftHandRing2
									{
										OFFSET 3.162567 0.000000 0.000000
										CHANNELS 3 Xrotation Yrotation Zrotation
										JOINT LeftHandRing3
										{
											OFFSET 3.324348 0.000000 0.000000
											CHANNELS 3 Xrotation Yrotation Zrotation
											End Site
											{
												OFFSET -0.861900 3.184998 0.405154
											}
										}
									}
								}
								JOINT LeftHandPinky1
								{
									OFFSET 13.131393 -0.168503 -5.746925
									CHANNELS 3 Xrotation Yrotation Zrotation
									JOINT LeftHandPinky2
									{
										OFFSET 2.849182 0.000000 0.000000
										CHANNELS 3 Xrotation Yrotation Zrotation
										JOINT LeftHandPinky3
										{
											OFFSET 2.805038 0.000000 0.000000
											CHANNELS 3 Xrotation Yrotation Zrotation
											End Site
											{
												OFFSET -0.882500 2.642609 0.325652
											}
										}
									}
								}
							}
							JOINT Left_Sleeve
							{
								OFFSET 6.592125 -0.646545 0.805568
								CHANNELS 3 Xrotation Yrotation Zrotation
								End Site
								{
									OFFSET -0.000179 20.275787 -0.000000
								}
							}
						}
					}
				}
				JOINT RightShoulder
				{
					OFFSET -5.731700 15.108002 -2.763700
					CHANNELS 3 Xrotation Yrotation Zrotation
					JOINT RightArm
					{
						OFFSET -9.825497 2.506317 -1.597400
						CHANNELS 3 Xrotation Yrotation Zrotation
						JOINT RightForeArm
						{
							OFFSET -21.966242 0.000000 0.000000
							CHANNELS 3 Xrotation Yrotation Zrotation
							JOINT RightHand
							{
								OFFSET -33.879032 0.000000 0.000000
								CHANNELS 3 Xrotation Yrotation Zrotation
								JOINT RightHandThumb1
								{
									OFFSET -6.715286 -2.359680 3.363841
									CHANNELS 3 Xrotation Yrotation Zrotation
									JOINT RightHandThumb2
									{
										OFFSET -2.507072 -1.447464 1.447461
										CHANNELS 3 Xrotation Yrotation Zrotation
										JOINT RightHandThumb3
										{
											OFFSET -2.898338 -1.673355 1.673357
											CHANNELS 3 Xrotation Yrotation Zrotation
											End Site
											{
												OFFSET 0.295959 3.727692 -0.131651
											}
										}
									}
								}
								JOINT RightHandIndex1
								{
									OFFSET -14.190811 -0.254547 3.840278
									CHANNELS 3 Xrotation Yrotation Zrotation
									JOINT RightHandIndex2
									{
										OFFSET -3.551727 0.000000 -0.000000
										CHANNELS 3 Xrotation Yrotation Zrotation
										JOINT RightHandIndex3
										{
											OFFSET -2.894196 0.000000 0.000000
											CHANNELS 3 Xrotation Yrotation Zrotation
											End Site
											{
												OFFSET 1.000603 2.690872 0.366626
											}
										}
									}
								}
								JOINT RightHandMiddle1
								{
									OFFSET -13.776489 0.000000 0.000000
									CHANNELS 3 Xrotation Yrotation Zrotation
									JOINT RightHandMiddle2
									{
										OFFSET -3.438232 0.000000 0.000000
										CHANNELS 3 Xrotation Yrotation Zrotation
										JOINT RightHandMiddle3
										{
											OFFSET -3.691551 0.000000 0.000000
											CHANNELS 3 Xrotation Yrotation Zrotation
											End Site
											{
												OFFSET 1.082298 3.499527 0.457670
											}
										}
									}
								}
								JOINT RightHandRing1
								{
									OFFSET -13.966164 -0.268127 -3.067488
									CHANNELS 3 Xrotation Yrotation Zrotation
									JOINT RightHandRing2
									{
										OFFSET -3.162567 0.000000 0.000000
										CHANNELS 3 Xrotation Yrotation Zrotation
										JOINT RightHandRing3
										{
											OFFSET -3.324348 0.000000 0.000000
											CHANNELS 3 Xrotation Yrotation Zrotation
											End Site
											{
												OFFSET 0.861900 3.184998 0.405154
											}
										}
									}
								}
								JOINT RightHandPinky1
								{
									OFFSET -13.131393 -0.168503 -5.746925
									CHANNELS 3 Xrotation Yrotation Zrotation
									JOINT RightHandPinky2
									{
										OFFSET -2.849182 0.000000 0.000000
										CHANNELS 3 Xrotation Yrotation Zrotation
										JOINT RightHandPinky3
										{
											OFFSET -2.805038 0.000000 0.000000
											CHANNELS 3 Xrotation Yrotation Zrotation
											End Site
											{
												OFFSET 0.882500 2.642609 0.325652
											}
										}
									}
								}
							}
							JOINT Right_Sleeve
							{
								OFFSET -6.592125 -0.646545 0.805568
								CHANNELS 3 Xrotation Yrotation Zrotation
								End Site
								{
									OFFSET 0.000179 20.275787 -0.000000
								}
							}
						}
					}
				}
				JOINT Bind_Right_JacketString
				{
					OFFSET -3.534800 11.969597 7.200700
					CHANNELS 3 Xrotation Yrotation Zrotation
					JOINT Bind_Right_JacketString1
					{
						OFFSET -0.319900 -6.102600 2.794100
						CHANNELS 3 Xrotation Yrotation Zrotation
						End Site
						{
							OFFSET 0.000000 6.719452 0.000000
						}
					}
				}
				JOINT Bind_Left_JacketString
				{
					OFFSET 2.904800 11.969597 7.200700
					CHANNELS 3 Xrotation Yrotation Zrotation
					JOINT Bind_Left_JacketString1
					{
						OFFSET 0.364800 -5.904503 3.186800
						CHANNELS 3 Xrotation Yrotation Zrotation
						End Site
						{
							OFFSET 0.000000 6.719513 0.000000
						}
					}
				}
				JOINT HairE
				{
					OFFSET 5.915200 17.612701 -11.592200
					CHANNELS 3 Xrotation Yrotation Zrotation
					JOINT HairE1
					{
						OFFSET 0.289200 -7.171898 -1.284500
						CHANNELS 3 Xrotation Yrotation Zrotation
						End Site
						{
							OFFSET 0.000000 7.291756 0.000000
						}
					}
				}
				JOINT HairF
				{
					OFFSET -0.864800 17.612701 -11.592200
					CHANNELS 3 Xrotation Yrotation Zrotation
					JOINT HairF1
					{
						OFFSET 0.000000 -14.087097 -2.127501
						CHANNELS 3 Xrotation Yrotation Zrotation
						End Site
						{
							OFFSET 0.000000 14.246841 0.000000
						}
					}
				}
				JOINT HairG
				{
					OFFSET -8.087700 17.612701 -11.592200
					CHANNELS 3 Xrotation Yrotation Zrotation
					JOINT HairG1
					{
						OFFSET -0.293600 -6.081398 -0.910100
						CHANNELS 3 Xrotation Yrotation Zrotation
						End Site
						{
							OFFSET 0.000000 6.156120 0.000000
						}
					}
				}
			}
		}
	}
	JOINT Pouch
	{
		OFFSET 0.000000 4.394501 10.847300
		CHANNELS 3 Xrotation Yrotation Zrotation
		End Site
		{
			OFFSET 0.000000 21.880577 0.000000
		}
	}
	JOINT Bag
	{
		OFFSET -13.229000 4.813004 -0.593300
		CHANNELS 3 Xrotation Yrotation Zrotation
		End Site
		{
			OFFSET 0.000000 21.880577 0.000000
		}
	}
	JOINT OccupyGuyFacialAnim_Joint
	{
		OFFSET 1.000000 -70.206398 -1.655000
		CHANNELS 3 Xrotation Yrotation Zrotation
		End Site
		{
			OFFSET 0.000000 21.880577 0.000000
		}
	}
}
MOTION
Frames: 4
Frame Time: 0.016667
12.466482 65.638138 -17.025440 155.557449 -33.018623 160.843401 -0.000000 -0.000001 -0.000000 -24.006302 34.132436 23.628572 27.503404 23.067372 -0.591646 -12.530059 12.097199 -26.465158 -0.000000 -0.000002 -0.000000 0.000001 0.000002 0.000000 -55.610389 18.794862 12.328198 37.927822 -0.263501 2.825437 -8.075123 -6.109603 2.967615 -0.000000 0.000001 -0.000000 -0.000002 0.000003 0.000001 36.403447 3.251668 8.753025 -9.351834 -3.570431 1.181057 -9.435598 -2.352108 2.017855 -12.226143 -7.455017 -5.693956 -19.356838 -12.917816 9.381449 0.000000 -0.000001 0.000000 0.000000 -0.000001 0.000000 0.000000 -0.000001 0.000000 0.000000 -0.000001 0.000000 -0.000000 0.000000 -0.000000 0.000000 -0.000001 0.000000 -0.000000 0.000000 -0.000000 0.000000 -0.000001 0.000000 0.000000 -0.000001 0.000000 5.744837 -10.522764 24.025844 -67.510594 -3.722632 -45.267984 1.348471 -68.597625 4.203006 -49.957322 9.172175 6.229503 17.551629 -5.699198 -12.932289 10.850498 26.127765 8.644850 -0.000000 -0.000000 0.000002 13.980899 1.201543 -55.004357 0.370817 1.161706 -65.441900 0.000001 0.000001 0.000000 7.504740 1.174468 -63.778483 1.807802 1.475679 -64.567957 0.000001 0.000000 0.000001 8.574339 2.179051 -75.148979 -0.207648 1.009261 -57.855063 0.000000 0.000000 -0.000002 10.030098 13.637063 -84.750237 0.877107 0.062282 -64.595503 0.000001 -0.000001 0.000001 -0.000003 -0.000001 -0.000001 8.424599 8.375893 -5.507275 -1.238779 1.267731 68.329185 13.833044 26.209118 -4.662828 1.309566 4.198871 -0.028687 18.220809 -5.165874 -16.100682 -6.245478 -30.512521 3.865923 -0.000001 0.000001 0.000001 8.324407 -2.978361 13.360776 -2.420660 -1.364217 30.156487 -0.000000 -0.000001 0.000004 -0.657849 -4.404967 22.423719 0.269048 -5.521317 37.097247 0.000001 0.000001 -0.000006 -4.177275 -8.849777 22.910729 4.057601 -1.935999 44.316658 -0.000000 -0.000001 0.000001 -16.086296 -11.774065 19.303187 10.677804 -2.614216 41.806314 0.000001 0.000004 -0.000002 0.000000 -0.000001 -0.000000 -0.000000 -0.000002 -0.000000 0.000000 -0.000001 0.000001 -0.000000 -0.000002 0.000000 -0.000000 -0.000002 0.000000 -0.000000 -0.000002 -0.000000 0.000000 -0.000001 0.000001 -0.000000 -0.000002 0.000000 -0.000000 -0.000002 0.000000 -0.000000 -0.000002 -0.000000 0.000000 -0.000001 0.000001 -0.000000 -0.000001 -0.000000 -0.000000 -0.000001 -0.000000 -0.000000 -0.000001 -0.000000 
12.415077 65.708694 -17.076586 155.709844 -33.214093 161.023486 0.000003 -0.000002 -0.000000 -23.224417 34.138436 23.128491 26.730623 23.171140 -0.532752 -12.224363 12.064743 -26.379876 -0.000000 -0.000000 -0.000000 -0.000000 0.000001 0.000000 -55.149365 18.669533 12.055663 37.779074 -0.223268 2.822476 -8.107868 -5.996140 2.897260 0.000000 0.000001 -0.000000 -0.000000 0.000001 0.000000 36.362961 3.281392 8.794634 -9.302408 -3.573408 1.240603 -9.386067 -2.346661 2.077848 -12.663943 -9.245401 -5.425662 -18.143122 -14.473888 9.482516 0.000000 0.000000 -0.000000 0.000000 0.000000 -0.000000 0.000000 0.000000 0.000000 0.000000 0.000000 -0.000000 -0.000000 -0.000000 -0.000000 0.000000 0.000000 -0.000000 -0.000000 -0.000000 -0.000000 0.000000 0.000000 -0.000000 0.000000 0.000000 -0.000000 5.600720 -10.392678 23.545696 -67.435038 -3.677388 -45.248159 1.632189 -68.445278 4.470460 -49.937122 9.068375 6.209527 17.551633 -5.699201 -12.932293 10.850497 26.127767 8.644851 0.000000 0.000001 0.000000 13.980901 1.201543 -55.004353 0.370820 1.161706 -65.441900 -0.000000 0.000000 -0.000002 7.504744 1.174467 -63.778483 1.807804 1.475679 -64.567957 -0.000000 0.000001 0.000001 8.574339 2.179050 -75.148972 -0.207650 1.009261 -57.855070 -0.000002 0.000000 -0.000001 10.030098 13.637064 -84.750237 0.877105 0.062280 -64.595503 -0.000002 -0.000000 0.000001 0.000001 0.000001 -0.000002 8.387673 8.109951 -5.631594 -1.325126 1.460290 68.468323 13.559654 26.271816 -4.380994 1.637666 4.236952 0.170609 18.207637 -5.153484 -16.107055 -6.281813 -30.420720 3.877080 -0.000001 0.000002 0.000001 8.217446 -2.911594 13.348520 -2.416343 -1.393988 30.239880 -0.000000 -0.000001 0.000004 -0.797120 -4.366874 22.488053 0.278298 -5.517106 37.121709 -0.000001 0.000002 -0.000002 -4.248820 -8.728375 23.054470 4.015898 -2.019636 44.438891 0.000002 0.000000 -0.000004 -16.404422 -11.839671 19.617954 10.678514 -2.615760 41.769769 0.000001 0.000000 -0.000003 0.000000 -0.000001 -0.000000 -0.000001 -0.000002 0.000000 -0.000001 -0.000001 -0.000000 -0.000001 -0.000002 0.000000 -0.000001 -0.000002 0.000000 -0.000001 -0.000002 0.000000 -0.000001 -0.000001 -0.000000 -0.000001 -0.000002 0.000000 -0.000001 -0.000002 0.000000 -0.000001 -0.000002 0.000000 -0.000001 -0.000001 -0.000000 0.000003 -0.000002 -0.000000 0.000003 -0.000002 -0.000000 0.000003 -0.000002 -0.000000 
12.371523 65.771797 -17.112310 155.836804 -33.401356 161.216165 -0.000002 -0.000001 0.000001 -22.492573 34.130838 22.614946 26.020280 23.267495 -0.478808 -11.944533 12.045411 -26.287081 -0.000000 -0.000000 0.000000 0.000001 -0.000001 0.000001 -54.737232 18.527407 11.801355 37.719108 -1.316543 2.726313 -8.113187 -4.757854 3.050134 0.000000 0.000000 0.000000 0.000003 0.000001 0.000000 36.290533 3.301374 8.835380 -9.262706 -3.564028 1.268317 -9.346584 -2.337909 2.102949 -12.950599 -10.349955 -5.301790 -17.398327 -15.412054 9.443618 -0.000000 -0.000000 -0.000000 -0.000000 -0.000000 -0.000000 -0.000000 -0.000000 0.000000 -0.000000 -0.000000 0.000000 -0.000000 -0.000000 -0.000000 -0.000000 -0.000000 0.000000 -0.000000 -0.000000 -0.000000 -0.000000 -0.000000 -0.000000 -0.000000 -0.000000 -0.000000 5.455869 -10.276590 23.062281 -67.354517 -3.637398 -45.228075 1.900050 -68.291687 4.724003 -49.919660 8.973182 6.196748 17.551633 -5.699199 -12.932290 10.850495 26.127765 8.644849 0.000003 0.000002 0.000001 13.980899 1.201544 -55.004353 0.370817 1.161707 -65.441900 0.000001 0.000001 0.000002 7.504741 1.174467 -63.778483 1.807803 1.475679 -64.567964 0.000001 -0.000001 0.000001 8.574341 2.179050 -75.148979 -0.207649 1.009261 -57.855063 -0.000001 0.000000 -0.000002 10.030099 13.637063 -84.750244 0.877105 0.062281 -64.595503 0.000000 0.000000 0.000001 0.000001 -0.000001 0.000001 8.353441 7.968164 -5.710310 -1.302542 1.649689 68.639248 13.413295 26.330439 -4.243874 1.725148 4.280989 0.377628 18.194490 -5.141176 -16.113439 -6.316161 -30.331607 3.889172 0.000000 -0.000001 0.000001 8.114773 -2.847550 13.337038 -2.411873 -1.422808 30.319862 0.000002 0.000000 0.000000 -0.930825 -4.330644 22.550039 0.287449 -5.512983 37.145151 0.000004 0.000001 -0.000001 -4.318067 -8.612275 23.192551 3.976698 -2.100078 44.556223 0.000000 -0.000001 0.000001 -16.709563 -11.906609 19.920014 10.679294 -2.617336 41.733163 0.000002 -0.000000 0.000000 0.000002 -0.000002 -0.000001 -0.000002 -0.000002 -0.000000 -0.000002 0.000000 -0.000000 -0.000002 -0.000002 0.000002 -0.000002 -0.000002 0.000002 -0.000002 -0.000002 -0.000000 -0.000002 0.000000 -0.000000 -0.000002 -0.000002 0.000002 -0.000002 -0.000002 0.000002 -0.000002 -0.000002 -0.000000 -0.000002 0.000000 -0.000000 -0.000002 -0.000001 0.000001 -0.000002 -0.000001 0.000001 -0.000002 -0.000001 0.000001 
12.331583 65.831024 -17.141026 155.952480 -33.585410 161.415374 -0.000000 0.000004 -0.000001 -21.781786 34.114845 22.094552 25.334864 23.360794 -0.426605 -11.675399 12.030826 -26.189737 0.000000 -0.000001 -0.000000 -0.000000 0.000002 -0.000002 -54.349110 18.396389 11.485431 37.605744 -1.116652 2.738635 -8.137603 -4.762433 2.964539 0.000000 -0.000001 0.000000 0.000002 -0.000001 0.000000 36.203991 3.317160 8.874718 -9.227448 -3.548998 1.281485 -9.311688 -2.327704 2.112161 -13.170370 -11.140840 -5.245223 -16.873789 -16.069919 9.340675 0.000000 0.000000 -0.000000 0.000000 0.000000 -0.000000 0.000000 0.000000 -0.000000 0.000000 0.000000 -0.000000 0.000000 -0.000000 -0.000000 0.000000 0.000000 -0.000000 0.000000 -0.000000 -0.000000 0.000000 0.000000 -0.000000 0.000000 0.000000 -0.000000 5.312898 -10.162597 22.584272 -67.274010 -3.603512 -45.213844 2.101652 -68.140447 4.908457 -49.904381 8.881457 6.194702 17.551633 -5.699202 -12.932290 10.850495 26.127765 8.644849 0.000003 -0.000002 -0.000001 13.980905 1.201544 -55.004353 0.370817 1.161706 -65.441900 -0.000000 0.000002 0.000000 7.504742 1.174469 -63.778476 1.807802 1.475680 -64.567957 -0.000000 0.000000 0.000001 8.574340 2.179051 -75.148979 -0.207649 1.009259 -57.855063 -0.000001 0.000000 0.000001 10.030099 13.637065 -84.750230 0.877106 0.062282 -64.595503 -0.000001 -0.000001 0.000003 0.000001 -0.000000 -0.000002 8.320675 7.882604 -5.768237 -1.231543 1.837841 68.823991 13.324728 26.387463 -4.172555 1.703408 4.326795 0.587468 18.181258 -5.128796 -16.119875 -6.348238 -30.245532 3.902256 -0.000000 -0.000001 0.000000 8.016901 -2.786413 13.326233 -2.407369 -1.450635 30.396210 0.000005 0.000001 -0.000003 -1.058390 -4.296389 22.609337 0.296489 -5.508843 37.167591 -0.000002 0.000003 -0.000000 -4.384637 -8.501893 23.324305 3.940079 -2.176955 44.668098 0.000003 -0.000000 -0.000003 -17.000377 -11.974056 20.208006 10.680032 -2.618829 41.696563 -0.000000 -0.000001 -0.000001 -0.000001 0.000001 0.000001 0.000002 -0.000000 0.000000 0.000001 0.000000 0.000001 0.000002 -0.000000 0.000001 0.000002 -0.000000 0.000001 0.000002 -0.000000 0.000000 0.000001 0.000000 0.000001 0.000002 -0.000000 0.000001 0.000002 -0.000000 0.000001 0.000002 -0.000000 0.000000 0.000001 0.000000 0.000001 -0.000000 0.000004 -0.000001 -0.000000 0.000004 -0.000001 -0.000000 0.000004 -0.000001 
